<svg xmlns="http://www.w3.org/2000/svg" viewBox="0 0 32 32" width="32" height="32">
  <defs>
    <linearGradient id="musicGradient" x1="0%" y1="0%" x2="100%" y2="100%">
      <stop offset="0%" style="stop-color:#1db954;stop-opacity:1" />
      <stop offset="100%" style="stop-color:#1ed760;stop-opacity:1" />
    </linearGradient>
  </defs>
  
  <!-- Background circle -->
  <circle cx="16" cy="16" r="15" fill="url(#musicGradient)" stroke="#000" stroke-width="1"/>
  
  <!-- Musical note -->
  <path d="M12 22c0 1.5-1.5 3-3 3s-3-1.5-3-3 1.5-3 3-3 3 1.5 3 3z" fill="white"/>
  <path d="M23 20c0 1.5-1.5 3-3 3s-3-1.5-3-3 1.5-3 3-3 3 1.5 3 3z" fill="white"/>
  <rect x="11" y="8" width="2" height="14" fill="white"/>
  <rect x="19" y="6" width="2" height="14" fill="white"/>
  <path d="M13 8 L21 6 L21 8 L13 10 Z" fill="white"/>
</svg>